# xmcd
# 
# Track frame offsets:
#     150
#     54222
#     66877
#     88805
#     101445
#     115725
#     144147
#     186892
#     209287
#     228502
#     252557
# 
# Disc length: 3560
# 
# Revision: 5
# Processed by: cddbd v1.5.2PL0 Copyright (c) Steve Scherf et al.
# Submitted via: fre:ac v1.0.17
# 
DISCID=940de60b
DTITLE=Muddy Waters - Muddy 'Mississippi' Waters Live (2)
DYEAR=2003
DGENRE=Blues
TTITLE0=Medley: After Hours - Stormy Monday Blues
TTITLE1=Trouble No More
TTITLE2=Champagne and Reefer
TTITLE3=Corrina, Corrina
TTITLE4=Hoochie Coochie Man
TTITLE5=She Moves Me
TTITLE6=Kansas City
TTITLE7=Pinetop's Boogie Woogie
TTITLE8=Mad Love (I Want You To Love Me)
TTITLE9=Everything's Gonna Be Alright
TTITLE10=Got My Mojo Working
EXTD=YEAR: 2003
EXTT0=
EXTT1=
EXTT2=
EXTT3=
EXTT4=
EXTT5=
EXTT6=
EXTT7=
EXTT8=
EXTT9=
EXTT10=
PLAYORDER=
